<svg fill="none" xmlns="http://www.w3.org/2000/svg" viewBox="0 0 16 16"><g clip-path="url(#a)"><path fill-rule="evenodd" clip-rule="evenodd" d="M8 16A8 8 0 1 0 8 0a8 8 0 0 0 0 16z" fill="#2C3E50"/><path fill-rule="evenodd" clip-rule="evenodd" d="M8 14.5A6.5 6.5 0 1 0 8 1.5a6.5 6.5 0 0 0 0 13z" fill="#2C3E50" stroke="#8E44AD" stroke-width="0.5"/><path fill-rule="evenodd" clip-rule="evenodd" d="M8 7.5a2 2 0 1 0 0-4 2 2 0 0 0 0 4z" fill="#9B59B6"/><path fill-rule="evenodd" clip-rule="evenodd" d="M8 7.5L6 10q-1 1 0 2L8 14l2-2q1-1 0-2L8 7.5z" fill="#9B59B6"/><path d="M6 10L4 9M10 10L12 9" stroke="#9B59B6" stroke-width="1" stroke-linecap="round"/><path d="M8 3L8 1" stroke="#ECF0F1" stroke-width="0.5" stroke-linecap="round"/><path d="M7 1.5L8 0.5L9 1.5" stroke="#ECF0F1" stroke-width="0.5" stroke-linecap="round" stroke-linejoin="round"/></g><defs><clipPath id="a"><path fill="#fff" d="M0 0h16v16H0z"/></clipPath></defs></svg>
